<svg width="67" height="68" viewBox="0 0 67 68" fill="none" xmlns="http://www.w3.org/2000/svg">
<g clipPath="url(#clip0_62_493)">
<path d="M16.0469 29.1562H24.4844L27.5312 32.9844L32.6875 38.8438L39.4063 46.9688H29.7969L25.0313 41.4219L21.8281 36.8125L16.0469 29.1562ZM39.3281 24C39.3281 28.4531 38.4622 32.2096 36.7305 35.2695C34.9987 38.3164 32.6615 40.6276 29.7188 42.2031C26.776 43.7656 23.4948 44.5469 19.875 44.5469C16.2292 44.5469 12.9349 43.7591 9.99219 42.1836C7.0625 40.5951 4.73177 38.2773 3 35.2305C1.28125 32.1706 0.421875 28.4271 0.421875 24C0.421875 19.5469 1.28125 15.7969 3 12.75C4.73177 9.6901 7.0625 7.3789 9.99219 5.8164C12.9349 4.24088 16.2292 3.45312 19.875 3.45312C23.4948 3.45312 26.776 4.24088 29.7188 5.8164C32.6615 7.3789 34.9987 9.6901 36.7305 12.75C38.4622 15.7969 39.3281 19.5469 39.3281 24ZM28.1563 24C28.1563 21.6042 27.8372 19.5859 27.1992 17.9453C26.5742 16.2917 25.6432 15.0417 24.4063 14.1953C23.1823 13.3359 21.6719 12.9062 19.875 12.9062C18.0781 12.9062 16.5612 13.3359 15.3242 14.1953C14.1003 15.0417 13.1693 16.2917 12.5313 17.9453C11.9063 19.5859 11.5938 21.6042 11.5938 24C11.5938 26.3958 11.9063 28.4206 12.5313 30.0742C13.1693 31.7148 14.1003 32.9648 15.3242 33.8242C16.5612 34.6706 18.0781 35.0937 19.875 35.0937C21.6719 35.0937 23.1823 34.6706 24.4063 33.8242C25.6432 32.9648 26.5742 31.7148 27.1992 30.0742C27.8372 28.4206 28.1563 26.3958 28.1563 24Z" fill="white"/>
<path d="M38.0469 28.1562H46.4844L49.5312 31.9844L54.6875 37.8438L61.4063 45.9688H51.7969L47.0313 40.4219L43.8281 35.8125L38.0469 28.1562ZM61.3281 23C61.3281 27.4531 60.4622 31.2096 58.7305 34.2695C56.9987 37.3164 54.6615 39.6276 51.7188 41.2031C48.776 42.7656 45.4948 43.5469 41.875 43.5469C38.2292 43.5469 34.9349 42.7591 31.9922 41.1836C29.0625 39.5951 26.7318 37.2773 25 34.2305C23.2813 31.1706 22.4219 27.4271 22.4219 23C22.4219 18.5469 23.2813 14.7969 25 11.75C26.7318 8.6901 29.0625 6.3789 31.9922 4.8164C34.9349 3.24088 38.2292 2.45312 41.875 2.45312C45.4948 2.45312 48.776 3.24088 51.7188 4.8164C54.6615 6.3789 56.9987 8.6901 58.7305 11.75C60.4622 14.7969 61.3281 18.5469 61.3281 23ZM50.1563 23C50.1563 20.6042 49.8372 18.5859 49.1992 16.9453C48.5742 15.2917 47.6432 14.0417 46.4063 13.1953C45.1823 12.3359 43.6719 11.9062 41.875 11.9062C40.0781 11.9062 38.5612 12.3359 37.3242 13.1953C36.1003 14.0417 35.1693 15.2917 34.5313 16.9453C33.9063 18.5859 33.5938 20.6042 33.5938 23C33.5938 25.3958 33.9063 27.4206 34.5313 29.0742C35.1693 30.7148 36.1003 31.9648 37.3242 32.8242C38.5612 33.6706 40.0781 34.0937 41.875 34.0937C43.6719 34.0937 45.1823 33.6706 46.4063 32.8242C47.6432 31.9648 48.5742 30.7148 49.1992 29.0742C49.8372 27.4206 50.1563 25.3958 50.1563 23Z" fill="white" fillOpacity="0.46"/>
<path d="M17.541 62.781L15.513 60.896C15.071 61.026 14.6073 61.091 14.122 61.091C13.2813 61.091 12.5187 60.896 11.834 60.506C11.1493 60.1073 10.6077 59.557 10.209 58.855C9.819 58.1443 9.624 57.3427 9.624 56.45C9.624 55.5573 9.819 54.76 10.209 54.058C10.6077 53.3473 11.1493 52.797 11.834 52.407C12.5187 52.0083 13.2813 51.809 14.122 51.809C14.9713 51.809 15.7383 52.0083 16.423 52.407C17.1077 52.797 17.645 53.3473 18.035 54.058C18.425 54.76 18.62 55.5573 18.62 56.45C18.62 57.3687 18.4163 58.1877 18.009 58.907C17.6017 59.6177 17.0427 60.1637 16.332 60.545L18.763 62.781H17.541ZM10.56 56.45C10.56 57.2213 10.716 57.9017 11.028 58.491C11.34 59.0717 11.7647 59.518 12.302 59.83C12.8393 60.142 13.446 60.298 14.122 60.298C14.798 60.298 15.4047 60.142 15.942 59.83C16.4793 59.518 16.904 59.0717 17.216 58.491C17.528 57.9017 17.684 57.2213 17.684 56.45C17.684 55.6787 17.528 55.0027 17.216 54.422C16.904 53.8413 16.4793 53.395 15.942 53.083C15.4047 52.771 14.798 52.615 14.122 52.615C13.446 52.615 12.8393 52.771 12.302 53.083C11.7647 53.395 11.34 53.8413 11.028 54.422C10.716 55.0027 10.56 55.6787 10.56 56.45ZM26.4468 53.902V61H25.5368V59.752C25.3288 60.194 25.0081 60.532 24.5748 60.766C24.1415 61 23.6561 61.117 23.1188 61.117C22.2695 61.117 21.5761 60.857 21.0388 60.337C20.5015 59.8083 20.2328 59.0457 20.2328 58.049V53.902H21.1298V57.945C21.1298 58.7163 21.3205 59.3057 21.7018 59.713C22.0918 60.1203 22.6205 60.324 23.2878 60.324C23.9725 60.324 24.5185 60.1073 24.9258 59.674C25.3331 59.2407 25.5368 58.6037 25.5368 57.763V53.902H26.4468ZM28.9794 52.563C28.7974 52.563 28.6414 52.498 28.5114 52.368C28.3814 52.238 28.3164 52.0777 28.3164 51.887C28.3164 51.6963 28.3814 51.5403 28.5114 51.419C28.6414 51.289 28.7974 51.224 28.9794 51.224C29.1614 51.224 29.3174 51.289 29.4474 51.419C29.5774 51.5403 29.6424 51.6963 29.6424 51.887C29.6424 52.0777 29.5774 52.238 29.4474 52.368C29.3174 52.498 29.1614 52.563 28.9794 52.563ZM29.4344 53.902V61H28.5244V53.902H29.4344ZM31.9761 60.246H35.6941V61H30.9361V60.246L34.5891 54.656H31.0011V53.902H35.6291V54.656L31.9761 60.246ZM46.9497 53.902V61H46.0397V59.752C45.8317 60.194 45.5111 60.532 45.0777 60.766C44.6444 61 44.1591 61.117 43.6217 61.117C42.7724 61.117 42.0791 60.857 41.5417 60.337C41.0044 59.8083 40.7357 59.0457 40.7357 58.049V53.902H41.6327V57.945C41.6327 58.7163 41.8234 59.3057 42.2047 59.713C42.5947 60.1203 43.1234 60.324 43.7907 60.324C44.4754 60.324 45.0214 60.1073 45.4287 59.674C45.8361 59.2407 46.0397 58.6037 46.0397 57.763V53.902H46.9497ZM49.9243 55.462C50.1496 54.9853 50.505 54.591 50.9903 54.279C51.4843 53.9583 52.0693 53.798 52.7453 53.798C53.3866 53.798 53.963 53.9497 54.4743 54.253C54.9943 54.5477 55.3973 54.9723 55.6833 55.527C55.978 56.073 56.1253 56.71 56.1253 57.438C56.1253 58.166 55.978 58.8073 55.6833 59.362C55.3973 59.9167 54.9943 60.3457 54.4743 60.649C53.963 60.9523 53.3866 61.104 52.7453 61.104C52.078 61.104 51.4973 60.948 51.0033 60.636C50.5093 60.3153 50.1496 59.9167 49.9243 59.44V64.354H49.0273V53.902H49.9243V55.462ZM55.2023 57.438C55.2023 56.8487 55.0853 56.3417 54.8513 55.917C54.626 55.4837 54.314 55.1543 53.9153 54.929C53.5166 54.7037 53.066 54.591 52.5633 54.591C52.078 54.591 51.6316 54.708 51.2243 54.942C50.8256 55.176 50.5093 55.5097 50.2753 55.943C50.0413 56.3763 49.9243 56.879 49.9243 57.451C49.9243 58.023 50.0413 58.5257 50.2753 58.959C50.5093 59.3923 50.8256 59.726 51.2243 59.96C51.6316 60.194 52.078 60.311 52.5633 60.311C53.066 60.311 53.5166 60.1983 53.9153 59.973C54.314 59.739 54.626 59.4053 54.8513 58.972C55.0853 58.53 55.2023 58.0187 55.2023 57.438Z" fill="white"/>
</g>
<defs>
<clipPath id="clip0_62_493">
<rect width="67" height="68" fill="white"/>
</clipPath>
</defs>
</svg>
